<svg width="19" height="20" viewBox="0 0 19 20" fill="none" xmlns="http://www.w3.org/2000/svg">
<path d="M0.85791 1.40289H2.54208C3.29445 1.40289 3.67063 1.40289 3.95385 1.6072C4.23707 1.81151 4.35598 2.16823 4.59379 2.88168L5.18185 4.64585" stroke="#141C24" stroke-width="1.5" stroke-linecap="round"/>
<path d="M15.9917 15.4557H5.77636C5.61962 15.4557 5.5407 15.4557 5.48017 15.4492C5.33008 15.4325 5.18516 15.3845 5.05476 15.3083C4.92435 15.2321 4.81136 15.1294 4.72306 15.0069C4.63476 14.8844 4.57311 14.7447 4.54209 14.5969C4.51107 14.4491 4.51137 14.2965 4.54295 14.1488C4.56791 14.0531 4.59712 13.9586 4.63051 13.8656C4.68673 13.6991 4.71375 13.6159 4.7451 13.5413C4.89898 13.1727 5.15194 12.854 5.47594 12.6204C5.79994 12.3869 6.1823 12.2476 6.58061 12.2181C6.6606 12.2127 6.74816 12.2127 6.92328 12.2127H12.7487" stroke="#141C24" stroke-width="1.5" stroke-linecap="round" stroke-linejoin="round"/>
<path d="M12.4019 12.2127H9.11465C7.73099 12.2127 7.03916 12.2127 6.49867 11.856C5.95709 11.4993 5.68469 10.8637 5.13987 9.59243L4.95718 9.16653C4.08159 7.12347 3.64487 6.1041 4.12482 5.37443C4.60694 4.64585 5.7182 4.64585 7.93854 4.64585H13.6461C16.1324 4.64585 17.3745 4.64585 17.8436 5.45334C18.3117 6.26084 17.6955 7.33966 16.4621 9.49731L16.1562 10.0346C15.5487 11.0972 15.2449 11.629 14.7412 11.9209C14.2385 12.2127 13.6256 12.2127 12.4019 12.2127Z" stroke="#141C24" stroke-width="1.5" stroke-linecap="round"/>
<path d="M15.4511 19.2391C16.0481 19.2391 16.5321 18.7552 16.5321 18.1582C16.5321 17.5611 16.0481 17.0772 15.4511 17.0772C14.8541 17.0772 14.3701 17.5611 14.3701 18.1582C14.3701 18.7552 14.8541 19.2391 15.4511 19.2391Z" fill="#141C24"/>
<path d="M5.72259 19.2391C6.3196 19.2391 6.80357 18.7552 6.80357 18.1582C6.80357 17.5611 6.3196 17.0772 5.72259 17.0772C5.12558 17.0772 4.6416 17.5611 4.6416 18.1582C4.6416 18.7552 5.12558 19.2391 5.72259 19.2391Z" fill="#141C24"/>
</svg>
