<svg width="20" height="20" viewBox="0 0 20 20" fill="none" xmlns="http://www.w3.org/2000/svg">
<path d="M10.7 15.7501V9.2501C10.7 8.83588 10.3642 8.5001 9.95 8.5001C9.53579 8.5001 9.2 8.83588 9.2 9.2501V15.7501C9.2 16.1643 9.53579 16.5001 9.95 16.5001C10.3642 16.5001 10.7 16.1643 10.7 15.7501Z" fill="#A5A3A3"/>
<path d="M7.7 15.7501V9.2501C7.7 8.83588 7.36421 8.5001 6.95 8.5001C6.53579 8.5001 6.2 8.83588 6.2 9.2501V15.7501C6.2 16.1643 6.53579 16.5001 6.95 16.5001C7.36421 16.5001 7.7 16.1643 7.7 15.7501Z" fill="#A5A3A3"/>
<path d="M13.7 15.7501V9.2501C13.7 8.83588 13.3642 8.5001 12.95 8.5001C12.5358 8.5001 12.2 8.83588 12.2 9.2501V15.7501C12.2 16.1643 12.5358 16.5001 12.95 16.5001C13.3642 16.5001 13.7 16.1643 13.7 15.7501Z" fill="#A5A3A3"/>
<path d="M14 4.5001C14 2.3001 12.2 0.600098 10 0.600098C7.8 0.600098 6 2.3001 6 4.5001H0.75C0.335786 4.5001 0 4.83588 0 5.2501C0 5.66431 0.335787 6.0001 0.75 6.0001H1.8L2.93146 18.185C3.02696 19.2135 3.88996 20.0001 4.92289 20.0001H15.2771C16.31 20.0001 17.173 19.2135 17.2685 18.185L18.4 6.0001H19.25C19.6642 6.0001 20 5.66431 20 5.2501C20 4.83588 19.6642 4.5001 19.25 4.5001H14ZM10 2.1001C11.4 2.1001 12.5 3.2001 12.5 4.5001H7.5C7.5 3.2001 8.6 2.1001 10 2.1001ZM15.7 18.5001H4.3L3.3 6.0001H6.3C6.3 6.0001 8.8 6.0001 13.7 6.0001C13.7 6.0001 14.7 6.0001 16.7 6.0001L15.7 18.5001Z" fill="#A5A3A3"/>
</svg>
