<svg width="19" height="19" viewBox="0 0 19 19" fill="none" xmlns="http://www.w3.org/2000/svg">
<path d="M18.085 0.258288C17.7923 -0.0344373 17.3177 -0.0344519 17.025 0.258255L9.306 7.97627L1.5965 0.2649C1.30356 -0.0281071 0.828519 -0.0280239 0.535686 0.265086C0.243098 0.55795 0.243181 1.03251 0.535871 1.32527L8.246 9.03727L0.529969 16.7533C0.237195 17.0461 0.23697 17.5207 0.529468 17.8137C0.822381 18.1072 1.29781 18.1074 1.59097 17.8142L9.306 10.0973L17.032 17.8223C17.3247 18.115 17.7993 18.115 18.092 17.8223C18.3847 17.5296 18.3847 17.055 18.092 16.7622L10.368 9.03727L18.0851 1.31832C18.3778 1.02557 18.3777 0.551 18.085 0.258288Z" fill="#141C24"/>
</svg>
