<svg width="18" height="19" viewBox="0 0 18 19" fill="none" xmlns="http://www.w3.org/2000/svg">
<path d="M0.741327 8.94092C0.393388 8.94092 0.111328 9.22298 0.111328 9.57092C0.111328 9.91886 0.393388 10.2009 0.741327 10.2009H6.2878L4.11643 12.4157C3.8522 12.6852 3.8522 13.1166 4.11643 13.3861C4.38815 13.6633 4.8345 13.6633 5.10623 13.3861L8.16028 10.271C8.54151 9.88213 8.54151 9.25971 8.16028 8.87085L5.10623 5.75572C4.8345 5.47856 4.38815 5.47856 4.11643 5.75572C3.8522 6.02523 3.8522 6.45661 4.11643 6.72612L6.2878 8.94092H0.741327Z" fill="#141C24"/>
<path d="M6.41846 17.896C6.41846 17.5233 6.72066 17.221 7.09346 17.221H16.0655C16.3417 17.221 16.5655 16.9972 16.5655 16.721V2.42104C16.5655 2.1449 16.3417 1.92104 16.0655 1.92104H7.09346C6.72066 1.92104 6.41846 1.61884 6.41846 1.24604C6.41846 0.873253 6.72066 0.571045 7.09346 0.571045H15.889C16.9936 0.571045 17.889 1.46648 17.889 2.57104V16.571C17.889 17.6756 16.9936 18.571 15.889 18.571H7.09346C6.72067 18.571 6.41846 18.2688 6.41846 17.896Z" fill="#141C24"/>
</svg>
