<svg width="18" height="19" viewBox="0 0 18 19" fill="none" xmlns="http://www.w3.org/2000/svg">
<path d="M11.4706 17.896C11.4706 17.5232 11.1684 17.221 10.7956 17.221H1.82353C1.54739 17.221 1.32353 16.9972 1.32353 16.721V2.42102C1.32353 2.14488 1.54739 1.92102 1.82353 1.92102H10.7956C11.1684 1.92102 11.4706 1.61881 11.4706 1.24602C11.4706 0.873228 11.1684 0.57102 10.7956 0.57102H2C0.895432 0.57102 0 1.46645 0 2.57102V16.571C0 17.6756 0.895431 18.571 2 18.571H10.7956C11.1684 18.571 11.4706 18.2688 11.4706 17.896ZM9.8947 9.21102C9.54677 9.21102 9.26471 9.49308 9.26471 9.84102C9.26471 10.189 9.54677 10.471 9.8947 10.471H15.4412L13.2698 12.6858C13.0056 12.9553 13.0056 13.3867 13.2698 13.6562C13.5415 13.9334 13.9879 13.9334 14.2596 13.6562L17.3137 10.5411C17.6949 10.1522 17.6949 9.52981 17.3137 9.14095L14.2596 6.02582C13.9879 5.74866 13.5415 5.74866 13.2698 6.02582C13.0056 6.29533 13.0056 6.72671 13.2698 6.99622L15.4412 9.21102H9.8947Z" fill="#141C24"/>
</svg>
