<svg width="76" height="35" viewBox="0 0 76 35" fill="none" xmlns="http://www.w3.org/2000/svg">
<path d="M11.8483 4.1589V13.8213H1.13868V4.1589H3.16332V12.2016H5.53703V4.1589H7.44996V12.2016H9.83763V4.1589H11.8483ZM21.1768 13.8213H19.1521V9.93958C19.1521 8.61775 19.2499 7.37969 19.4454 6.22542L16.4014 13.8213H13.8881V4.1589H15.9127V8.0825C15.9127 8.86443 15.8848 9.51603 15.829 10.0373C15.7824 10.5493 15.7126 11.1171 15.6195 11.7408L18.7193 4.1589H21.1768V13.8213ZM33.6313 8.93424C33.6313 10.3212 33.2311 11.3731 32.4305 12.0899C31.63 12.7973 30.5176 13.1743 29.0934 13.2209V14.3519H27.0967V13.2069C25.6538 13.1418 24.5368 12.7601 23.7455 12.062C22.9543 11.3545 22.5587 10.3259 22.5587 8.97613C22.5587 7.58914 22.959 6.54191 23.7595 5.83446C24.56 5.11769 25.6724 4.73603 27.0967 4.68949V3.64227H29.0934V4.70345C30.5362 4.76861 31.6532 5.15492 32.4445 5.86238C33.2357 6.56053 33.6313 7.58448 33.6313 8.93424ZM29.0096 11.9084C29.8939 11.8525 30.5362 11.5872 30.9365 11.1125C31.3367 10.6377 31.5369 9.91165 31.5369 8.93424C31.5369 7.97545 31.3321 7.25868 30.9225 6.78394C30.5129 6.3092 29.8753 6.04856 29.0096 6.00201V11.9084ZM24.6531 8.97613C24.6531 9.93492 24.8579 10.6517 25.2675 11.1264C25.6771 11.6012 26.3147 11.8618 27.1804 11.9084V6.00201C26.2961 6.05786 25.6538 6.32316 25.2535 6.7979C24.8533 7.27264 24.6531 7.99872 24.6531 8.97613ZM40.928 4.1589L40.7046 5.76464H38.261V13.8213H36.2085V5.76464H33.6393V4.1589H40.928Z" fill="#F4511E"/>
<path d="M4.12676 20.4797C5.38343 20.4797 6.35619 20.7403 7.04503 21.2616C7.74318 21.7829 8.09225 22.5602 8.09225 23.5934C8.09225 24.6733 7.74783 25.4878 7.05899 26.037C6.37015 26.5769 5.44859 26.8468 4.29432 26.8468H3.19124V30.1421H1.13868V20.4797H4.12676ZM4.12676 25.3388C4.72252 25.3388 5.17864 25.2038 5.49514 24.9339C5.81163 24.6639 5.96988 24.2171 5.96988 23.5934C5.96988 22.5043 5.3462 21.9598 4.09884 21.9598H3.19124V25.3388H4.12676ZM11.4954 20.4797V30.1421H9.44285V20.4797H11.4954ZM19.5513 20.4797V22.0575L15.2228 28.4805H19.6211L19.3977 30.1421H12.8211V28.5922L17.2334 22.0994H13.2679V20.4797H19.5513ZM26.9964 20.4797V22.0575L22.6679 28.4805H27.0662L26.8428 30.1421H20.2662V28.5922L24.6785 22.0994H20.7131V20.4797H26.9964ZM33.6297 30.1421L33.0851 27.9778H30.0552L29.5106 30.1421H27.3743L30.3484 20.4797H32.8478L35.8079 30.1421H33.6297ZM30.4461 26.4559H32.6942L31.5632 22.0017L30.4461 26.4559Z" fill="#F4511E"/>
<circle cx="60.5" cy="16.5" r="15.5" fill="#F4511E"/>
</svg>
