<svg width="16" height="17" viewBox="0 0 16 17" fill="none" xmlns="http://www.w3.org/2000/svg">
<path fill-rule="evenodd" clip-rule="evenodd" d="M12 4.57102C12 6.78016 10.2091 8.57102 8 8.57102C5.79086 8.57102 4 6.78016 4 4.57102C4 2.36188 5.79086 0.57102 8 0.57102C10.2091 0.57102 12 2.36188 12 4.57102ZM10.5 4.57102C10.5 5.95173 9.38071 7.07102 8 7.07102C6.61929 7.07102 5.5 5.95173 5.5 4.57102C5.5 3.19031 6.61929 2.07102 8 2.07102C9.38071 2.07102 10.5 3.19031 10.5 4.57102Z" fill="#141C24"/>
<path fill-rule="evenodd" clip-rule="evenodd" d="M0 14.343V16.571H16V14.343C16 12.6756 14.9657 11.1832 13.4045 10.5977L13.2669 10.5461C9.87107 9.27267 6.12893 9.27267 2.73315 10.5461L2.59551 10.5977C1.03429 11.1832 0 12.6756 0 14.343ZM3.25984 11.9506C6.31603 10.8045 9.68397 10.8045 12.7402 11.9506L12.8778 12.0022C13.8536 12.3681 14.5 13.3009 14.5 14.343V15.071H1.5V14.343C1.5 13.3009 2.14643 12.3681 3.12219 12.0022L3.25984 11.9506Z" fill="#141C24"/>
</svg>
