<svg width="20" height="21" viewBox="0 0 20 21" fill="none" xmlns="http://www.w3.org/2000/svg">
<path d="M13.9239 14.6948C14.2375 14.4096 14.2492 13.9202 13.9494 13.6204L10.7 10.371V5.32102C10.7 4.90681 10.3642 4.57102 9.95001 4.57102C9.5358 4.57102 9.20001 4.90681 9.20001 5.32102V10.5568C9.20001 10.822 9.30537 11.0764 9.49291 11.2639L12.8994 14.6704C13.1797 14.9507 13.6306 14.9614 13.9239 14.6948Z" fill="#141C24"/>
<path d="M10 20.571C8.63333 20.571 7.34167 20.3085 6.125 19.7835C4.90833 19.2585 3.84583 18.5419 2.9375 17.6335C2.02917 16.7252 1.3125 15.6627 0.7875 14.446C0.2625 13.2294 0 11.9294 0 10.546C0 9.17935 0.2625 7.88769 0.7875 6.67102C1.3125 5.45435 2.02917 4.39602 2.9375 3.49602C3.84583 2.59602 4.90833 1.88352 6.125 1.35852C7.34167 0.83352 8.64167 0.57102 10.025 0.57102C11.3917 0.57102 12.6833 0.83352 13.9 1.35852C15.1167 1.88352 16.175 2.59602 17.075 3.49602C17.975 4.39602 18.6875 5.45435 19.2125 6.67102C19.7375 7.88769 20 9.18769 20 10.571C20 11.9377 19.7375 13.2294 19.2125 14.446C18.6875 15.6627 17.975 16.7252 17.075 17.6335C16.175 18.5419 15.1167 19.2585 13.9 19.7835C12.6833 20.3085 11.3833 20.571 10 20.571ZM10 19.071C12.3667 19.071 14.375 18.2419 16.025 16.5835C17.675 14.9252 18.5 12.921 18.5 10.571C18.5 8.20435 17.675 6.19602 16.025 4.54602C14.375 2.89602 12.3667 2.07102 10 2.07102C7.65 2.07102 5.64583 2.89602 3.9875 4.54602C2.32917 6.19602 1.5 8.20435 1.5 10.571C1.5 12.921 2.32917 14.9252 3.9875 16.5835C5.64583 18.2419 7.65 19.071 10 19.071Z" fill="#141C24"/>
</svg>
